<?xml version="1.0" standalone="no"?>
<!DOCTYPE svg PUBLIC "-//W3C//DTD SVG 20010904//EN"
 "http://www.w3.org/TR/2001/REC-SVG-20010904/DTD/svg10.dtd">
<svg version="1.0" xmlns="http://www.w3.org/2000/svg"
 width="864.000000pt" height="874.000000pt" viewBox="0 0 864.000000 874.000000"
 preserveAspectRatio="xMidYMid meet">

<g transform="translate(0.000000,874.000000) scale(0.100000,-0.100000)"
fill="#000000" stroke="none">
<path d="M600 8730 c0 -5 9 -10 19 -10 10 0 22 -7 25 -16 4 -12 14 -14 37 -9
24 5 34 3 44 -12 7 -10 36 -29 64 -43 28 -14 51 -28 51 -32 0 -5 15 -8 34 -8
36 0 56 -14 34 -23 -8 -4 -4 -8 9 -12 12 -4 25 -15 28 -25 3 -10 12 -21 20
-24 9 -3 15 -19 15 -41 0 -19 5 -35 10 -35 6 0 10 -27 10 -62 0 -92 -21 -113
-119 -120 -54 -4 -76 -10 -83 -22 -6 -11 -23 -16 -53 -16 -24 0 -47 -4 -50
-10 -3 -5 -14 -10 -24 -10 -20 0 -91 -62 -91 -79 0 -35 -67 -131 -92 -131 -4
0 -8 -7 -8 -15 0 -8 -9 -15 -20 -15 -11 0 -20 -4 -20 -10 0 -5 -13 -10 -30
-10 -23 0 -30 -4 -30 -20 0 -11 -7 -20 -15 -20 -8 0 -19 -9 -25 -20 -6 -11
-17 -20 -26 -20 -8 0 -26 -7 -39 -16 -14 -9 -55 -19 -91 -22 -56 -4 -69 -2
-94 17 -16 11 -33 21 -37 21 -5 0 -15 9 -23 20 -8 11 -18 20 -22 20 -4 0 -8
-920 -8 -2045 l0 -2046 33 -32 c18 -19 52 -39 77 -45 51 -14 329 -22 336 -10
10 16 106 7 178 -17 55 -18 96 -25 155 -25 47 0 81 4 81 10 0 6 9 10 20 10 11
0 20 4 20 8 0 4 23 9 51 10 29 1 70 8 93 16 23 8 58 17 79 21 20 4 37 11 37
16 0 5 9 9 20 9 13 0 20 7 20 20 0 11 5 20 10 20 6 0 10 7 10 15 0 9 9 25 20
37 11 12 20 30 20 40 0 22 28 68 42 68 41 0 62 107 32 161 -11 19 -21 36 -24
39 -22 22 -31 95 -31 269 0 210 -4 229 -56 275 -54 47 -44 77 49 146 47 35 58
56 37 77 -13 13 -16 102 -3 111 12 9 34 59 34 78 0 9 -13 28 -29 43 -30 28
-61 81 -61 104 0 19 34 57 52 57 8 0 22 8 30 18 9 9 31 34 50 54 31 33 35 43
36 98 2 72 16 90 66 90 33 0 36 -2 36 -30 0 -16 5 -30 10 -30 6 0 10 -8 10
-18 0 -10 9 -24 20 -32 11 -8 20 -19 20 -26 0 -6 9 -19 20 -29 12 -11 20 -31
20 -51 0 -18 5 -36 10 -39 6 -3 10 -16 10 -29 0 -12 9 -32 20 -44 11 -12 20
-28 20 -37 0 -8 4 -15 9 -15 5 0 11 -13 14 -29 3 -16 12 -35 19 -42 18 -20 58
-98 58 -115 0 -8 5 -14 10 -14 6 0 10 -9 10 -20 0 -20 56 -157 72 -175 4 -5 8
-17 8 -27 0 -10 5 -18 10 -18 6 0 10 -9 10 -19 0 -11 4 -22 9 -25 5 -3 11 -23
14 -43 8 -58 37 -195 47 -218 20 -47 24 -79 32 -250 11 -248 11 -243 -2 -305
-6 -30 -15 -125 -21 -210 -5 -85 -11 -190 -15 -234 -4 -51 -2 -82 5 -89 6 -6
11 -27 11 -47 0 -41 33 -100 55 -100 24 0 52 31 61 65 8 34 50 95 65 95 6 0 7
-5 3 -12 -5 -7 -7 -25 -6 -40 2 -18 -4 -32 -18 -40 -28 -18 -25 -28 10 -28 27
0 30 -3 30 -29 0 -17 -4 -33 -10 -36 -16 -10 -12 -47 8 -61 9 -7 36 -14 60
-14 38 0 42 -2 42 -26 0 -17 -6 -28 -19 -31 -11 -3 -24 -18 -30 -34 -6 -16
-16 -42 -22 -59 -6 -16 -15 -30 -20 -30 -5 0 -9 -7 -9 -16 0 -8 -7 -22 -15
-30 -9 -9 -13 -25 -9 -38 6 -24 -31 -116 -46 -116 -5 0 -19 -22 -31 -50 -12
-27 -26 -50 -31 -50 -4 0 -8 -20 -8 -44 0 -37 -6 -49 -40 -85 -44 -45 -47 -56
-25 -81 20 -22 12 -42 -25 -64 -28 -16 -30 -21 -28 -74 1 -31 -4 -67 -10 -79
-22 -41 -15 -89 19 -120 17 -15 46 -43 65 -60 18 -18 40 -33 49 -33 8 0 15 -4
15 -10 0 -5 -4 -10 -10 -10 -5 0 -10 -13 -10 -29 0 -27 25 -69 62 -102 10 -9
18 -21 18 -26 0 -6 18 -13 40 -17 57 -9 80 -26 80 -58 0 -26 -3 -28 -44 -28
-36 0 -49 5 -73 30 -15 17 -37 30 -49 30 -18 0 -74 42 -114 85 -8 9 -34 36
-57 60 -48 51 -63 75 -63 105 0 23 -21 50 -39 50 -6 0 -18 11 -27 25 -19 29
-14 98 9 145 15 29 4 70 -18 70 -20 0 -47 -50 -59 -109 -11 -55 -12 -56 -42
-53 l-32 3 5 -88 c2 -48 8 -97 13 -108 4 -11 13 -36 20 -55 31 -90 53 -122
155 -227 44 -46 87 -83 96 -83 9 0 19 -9 22 -20 3 -14 14 -20 31 -20 14 0 26
-3 26 -7 0 -9 48 -33 66 -33 7 0 14 5 16 12 4 11 63 -23 79 -45 5 -7 241 -4
339 4 14 2 33 -1 43 -5 14 -7 17 -3 17 23 0 28 2 31 25 25 26 -6 66 14 120 60
17 14 35 26 40 26 6 0 17 9 25 20 8 11 19 20 25 20 19 0 54 39 62 68 7 30 27
54 37 45 3 -4 6 -19 6 -35 0 -55 26 -44 118 51 49 50 96 91 104 91 9 0 18 5
20 11 5 15 91 15 96 0 4 -13 32 -15 32 -1 0 14 -42 50 -59 50 -9 0 -32 13 -51
30 -27 23 -31 30 -18 35 16 7 98 -25 98 -37 0 -5 7 -8 16 -8 9 0 24 -8 33 -19
9 -10 31 -26 49 -35 30 -16 36 -16 64 -1 52 26 111 18 86 -12 -6 -8 -11 -30
-10 -51 1 -20 -3 -39 -9 -43 -6 -3 -11 -32 -10 -62 0 -31 -4 -59 -9 -62 -6 -4
-10 -26 -10 -50 0 -24 -6 -50 -13 -57 -22 -20 -10 -255 14 -290 11 -14 19 -33
19 -42 0 -9 4 -16 8 -16 5 0 17 -19 28 -41 19 -43 39 -69 53 -69 22 0 51 40
51 69 0 18 7 39 15 48 10 9 13 23 9 35 -5 16 -2 19 13 16 11 -2 19 -13 21 -31
2 -15 8 -27 13 -27 5 0 9 -27 9 -61 l0 -60 29 20 c15 11 78 70 138 131 94 93
116 110 142 110 27 0 31 -4 31 -25 0 -33 -33 -98 -68 -133 -24 -24 -50 -66
-86 -139 -6 -13 -14 -23 -18 -23 -5 0 -8 -7 -8 -15 0 -9 -9 -25 -20 -37 -10
-11 -26 -36 -35 -54 -9 -19 -27 -45 -40 -59 -14 -13 -25 -31 -25 -40 0 -8 -5
-24 -12 -34 -9 -15 -7 -24 11 -50 12 -17 27 -31 32 -31 5 0 9 -18 9 -39 0 -22
5 -43 10 -46 6 -4 10 6 10 23 0 16 6 35 14 41 17 14 117 5 128 -12 11 -17 10
-55 -2 -77 -7 -13 -6 -21 5 -30 12 -10 16 -9 21 4 3 9 14 16 24 16 9 0 25 9
35 20 12 13 31 20 57 20 33 0 38 3 38 23 0 24 -22 92 -33 103 -4 4 -7 34 -7
66 0 50 -11 90 -30 108 -3 3 -16 19 -28 37 -17 25 -22 45 -22 100 0 58 4 72
25 97 35 41 60 30 155 -65 l80 -80 0 -70 c0 -59 10 -99 30 -119 12 -12 30 -51
30 -65 0 -8 5 -15 10 -15 6 0 10 -7 10 -15 0 -13 8 -32 27 -64 2 -2 12 4 23
14 19 17 20 17 26 -1 3 -11 9 -28 14 -39 18 -47 30 -93 30 -113 0 -12 5 -22
10 -22 6 0 10 -8 10 -18 0 -10 11 -28 24 -39 13 -11 31 -34 41 -49 9 -16 28
-35 43 -42 24 -11 29 -10 49 12 13 14 23 33 23 44 0 17 60 92 75 92 11 0 99
62 118 84 15 17 17 30 12 71 -4 27 -10 64 -15 80 -29 105 -40 296 -20 350 13
33 2 53 -56 112 -24 24 -44 48 -44 53 0 6 -5 10 -11 10 -7 0 -19 8 -28 18 -39
45 -121 82 -183 82 -31 0 -37 -4 -47 -31 -11 -33 -10 -32 -73 -12 -10 3 -18
-2 -23 -16 -10 -32 -33 -25 -72 19 -20 22 -43 40 -53 40 -10 0 -20 5 -22 10
-2 6 -14 1 -26 -11 -23 -20 -24 -20 -37 -3 -8 11 -15 24 -15 31 0 6 -6 13 -12
16 -16 5 -15 114 1 130 6 6 11 20 11 32 0 12 5 26 11 32 5 5 12 30 14 54 6 73
16 101 51 136 25 25 42 33 68 33 19 0 36 -4 38 -8 2 -4 23 -17 48 -29 34 -15
68 -21 135 -22 49 -1 94 -6 99 -11 6 -6 19 -10 31 -10 42 0 55 -127 30 -287
-6 -35 -3 -50 18 -85 31 -54 74 -100 107 -117 14 -6 35 -27 47 -46 12 -18 39
-46 60 -62 21 -15 58 -49 83 -74 25 -25 58 -49 73 -53 16 -4 43 -22 60 -41 22
-24 41 -35 59 -35 16 0 28 5 28 10 0 6 9 10 20 10 11 0 20 -5 20 -11 0 -20 63
-1 87 26 12 14 26 25 31 25 22 0 62 27 62 43 0 9 5 17 10 17 6 0 10 8 10 18 0
10 9 24 20 32 11 8 20 21 20 30 0 8 9 21 20 28 16 10 20 23 20 67 0 30 -5 64
-12 75 -10 15 -10 26 0 53 15 40 16 123 2 132 -5 3 -10 17 -10 31 0 14 -5 34
-11 45 -7 15 -7 24 2 35 24 30 25 28 49 -116 18 -111 37 -170 55 -170 31 0 67
31 106 92 27 41 51 68 62 68 11 0 17 8 17 24 0 14 5 28 10 31 18 11 11 45 -9
45 -14 0 -21 10 -26 37 -9 47 -23 75 -35 68 -5 -3 -18 2 -29 12 -38 35 -50 43
-65 43 -9 0 -12 7 -9 20 5 20 23 28 23 10 0 -5 9 -10 20 -10 11 0 20 6 20 13
0 18 -24 67 -32 67 -13 0 -9 58 4 62 9 3 12 27 10 80 -2 46 1 79 7 83 8 4 8
12 1 25 -15 28 -12 38 10 45 14 5 19 12 15 24 -5 18 24 61 42 61 6 0 17 10 26
23 13 20 24 22 108 25 52 2 118 5 147 8 29 3 58 2 65 -3 38 -28 137 -7 175 38
13 16 34 29 46 29 12 0 32 9 44 20 12 11 32 20 45 20 14 0 34 12 48 28 24 27
26 27 144 29 87 1 129 6 150 17 17 9 39 16 50 16 11 0 31 3 43 7 20 5 23 10
18 35 -9 46 23 71 87 66 49 -3 52 -2 62 27 5 17 25 45 43 63 35 36 35 37 22
102 -6 25 -13 77 -16 117 l-6 72 41 25 c23 15 41 31 41 38 0 27 36 37 131 38
95 0 95 0 134 36 21 19 52 38 67 41 22 4 28 11 28 33 0 18 7 30 23 37 40 19
93 33 121 33 43 0 56 21 56 90 0 52 -5 68 -30 105 -17 24 -30 48 -30 54 0 6
-4 11 -10 11 -5 0 -10 9 -10 20 0 24 -3 24 48 0 87 -42 128 -13 108 77 -10 45
14 56 109 47 l75 -7 0 46 c0 41 3 47 24 53 13 3 32 5 42 4 45 -5 54 0 54 29 0
20 9 37 31 55 28 24 36 25 87 20 31 -4 62 -10 67 -15 6 -4 63 -7 127 -6 l117
1 45 -49 c62 -68 68 -123 17 -145 -35 -14 -55 -53 -41 -80 14 -26 13 -111 -2
-142 -7 -15 -24 -29 -38 -32 -32 -6 -70 -38 -70 -59 0 -9 8 -22 18 -29 9 -7
23 -25 31 -40 8 -15 23 -28 35 -30 18 -3 21 -9 18 -40 -2 -29 1 -38 13 -38 19
0 19 -1 -1 -47 -9 -21 -21 -47 -25 -58 -19 -45 -7 -87 37 -132 24 -24 50 -43
58 -43 12 0 31 -34 38 -70 3 -15 -36 -150 -53 -182 -21 -41 -4 -118 26 -118 8
0 20 -12 27 -27 7 -14 19 -28 26 -31 9 -3 12 628 12 3132 l0 3136 -995 0 -995
0 0 -36 c0 -26 7 -41 24 -55 31 -24 39 -56 18 -68 -14 -8 -15 -12 -4 -23 9 -9
39 -12 103 -10 68 2 95 -1 112 -13 12 -8 29 -15 39 -15 10 0 18 -4 18 -9 0
-11 26 -22 64 -27 45 -6 56 -21 56 -75 0 -27 5 -49 10 -49 21 0 9 -43 -20 -70
-17 -15 -30 -39 -30 -52 -1 -12 -14 -39 -30 -58 -17 -19 -30 -39 -30 -45 -1
-5 -19 -22 -40 -37 -22 -15 -40 -34 -40 -41 0 -16 -41 -37 -71 -37 -11 0 -30
-5 -42 -12 -24 -12 -97 -88 -97 -100 0 -5 -7 -8 -15 -8 -8 0 -15 -4 -15 -10 0
-5 -9 -10 -20 -10 -11 0 -20 -4 -20 -10 0 -5 -22 -10 -49 -10 -31 0 -51 -5
-54 -12 -3 -10 -9 -10 -28 -1 -13 6 -39 17 -56 25 -18 7 -33 16 -33 20 0 5 -6
8 -14 8 -7 0 -31 16 -52 35 -38 35 -39 38 -39 105 0 37 -3 72 -7 76 -10 10
-10 44 0 44 11 0 74 124 70 140 -2 8 6 16 16 18 37 8 47 29 45 89 -2 35 2 68
11 83 8 16 13 52 12 98 -1 65 0 72 18 72 16 0 20 7 20 30 0 17 5 30 10 30 6 0
10 5 10 10 0 7 -197 10 -570 10 -431 0 -570 -3 -570 -12 0 -6 5 -27 12 -45 8
-22 9 -37 3 -41 -12 -8 -35 -71 -35 -94 0 -9 -31 -48 -70 -86 -38 -38 -70 -73
-70 -78 -1 -22 -49 -60 -90 -73 -25 -7 -61 -21 -80 -31 -40 -20 -184 -28 -195
-11 -3 6 -19 11 -35 11 -28 0 -100 59 -100 82 0 6 -36 46 -80 89 -44 42 -80
82 -80 88 0 7 -8 15 -17 18 -22 8 -51 39 -58 64 -4 11 -12 19 -20 19 -7 0 -19
10 -28 23 -8 12 -27 34 -42 50 l-28 27 -1873 0 c-1243 0 -1874 -3 -1874 -10z
m4800 -1368 c0 -54 49 -109 63 -69 3 9 7 9 20 -1 11 -10 15 -30 15 -77 -2 -88
27 -124 52 -65 9 21 19 30 35 30 24 0 35 29 35 90 0 39 22 55 52 38 13 -7 25
-15 28 -18 3 -3 18 -12 34 -20 40 -21 56 -48 63 -111 4 -35 13 -60 26 -71 15
-13 18 -24 13 -45 -22 -85 -18 -143 8 -143 8 0 16 -6 19 -12 3 -9 11 -6 24 10
11 12 31 22 43 22 12 0 31 10 41 21 20 23 77 38 144 39 32 0 42 -4 50 -22 8
-18 17 -22 43 -20 27 3 32 0 32 -17 0 -12 -4 -21 -10 -21 -5 0 -10 -8 -10 -18
0 -10 -5 -23 -11 -29 -8 -8 -8 -19 2 -42 11 -25 20 -31 45 -31 16 0 39 8 50
18 41 38 83 62 109 62 23 0 26 -4 23 -27 -3 -27 -1 -28 42 -27 25 0 53 4 63 8
13 6 17 4 17 -13 0 -14 -6 -21 -19 -21 -11 0 -23 -4 -26 -10 -3 -5 -20 -10
-36 -10 -16 0 -35 -5 -42 -10 -78 -67 -81 -70 -61 -70 11 0 26 9 34 20 9 13
26 20 47 20 33 0 64 13 91 38 16 14 58 16 67 2 3 -5 -6 -22 -20 -36 -14 -14
-28 -38 -31 -54 -4 -16 -17 -33 -33 -41 -14 -8 -28 -17 -31 -20 -3 -3 -15 -11
-27 -18 -13 -6 -23 -16 -23 -21 0 -27 90 4 109 37 5 10 13 14 17 10 5 -4 3
-17 -4 -27 -18 -29 -16 -30 33 -30 49 0 73 10 120 52 34 31 43 34 51 14 3 -8
-20 -38 -55 -73 -34 -33 -61 -66 -61 -73 0 -18 -31 -39 -57 -40 -13 0 -23 -4
-23 -10 0 -5 -9 -10 -20 -10 -11 0 -20 -4 -20 -10 0 -5 -8 -10 -17 -10 -10 0
-33 -18 -52 -40 -19 -22 -43 -40 -53 -40 -11 0 -18 -7 -18 -20 0 -13 -7 -20
-18 -20 -10 0 -25 -12 -33 -27 -8 -16 -22 -37 -31 -47 -10 -11 -18 -24 -18
-29 0 -16 -81 -87 -108 -94 -31 -7 -72 -46 -72 -68 0 -21 13 -19 30 5 8 11 22
20 32 20 16 0 16 -3 6 -20 -7 -11 -18 -20 -25 -20 -6 0 -36 -24 -67 -54 -30
-30 -56 -50 -58 -44 -3 7 -15 5 -35 -6 -18 -9 -37 -16 -43 -16 -7 0 -25 -13
-40 -30 -15 -16 -35 -30 -44 -30 -9 0 -16 -3 -16 -7 0 -10 -49 -33 -71 -33 -9
0 -24 -12 -34 -26 -10 -16 -22 -23 -32 -20 -9 4 -26 -6 -43 -24 -15 -16 -38
-30 -49 -30 -23 0 -82 -53 -94 -83 -4 -10 -11 -15 -17 -12 -6 4 -7 -1 -3 -12
5 -15 4 -16 -8 -7 -37 29 -95 19 -136 -22 -8 -7 -27 -21 -43 -31 -17 -9 -30
-21 -30 -25 0 -4 -6 -8 -13 -8 -7 0 -23 -9 -35 -20 -12 -11 -26 -20 -32 -20
-30 0 -123 -83 -135 -120 -4 -11 -11 -20 -16 -20 -5 0 -9 -6 -9 -13 0 -20 -39
-97 -61 -120 -10 -12 -19 -26 -19 -33 0 -7 -4 -14 -8 -16 -20 -8 -52 -70 -52
-100 0 -19 -4 -38 -9 -44 -5 -5 -11 -22 -13 -39 -2 -22 -9 -31 -25 -33 -39 -6
-128 -110 -110 -128 2 -3 19 8 37 23 22 18 35 23 38 15 2 -6 12 -12 23 -12 28
0 23 -28 -11 -60 -35 -33 -37 -40 -10 -40 13 0 20 -7 20 -20 0 -11 -4 -20 -10
-20 -5 0 -10 -6 -10 -14 0 -7 -6 -19 -14 -26 -8 -6 -12 -18 -9 -26 3 -8 -1
-14 -10 -14 -9 0 -19 -5 -23 -11 -8 -14 16 -31 34 -24 6 3 19 8 27 11 11 5 15
-1 15 -25 0 -27 -4 -31 -26 -31 -26 0 -84 -50 -84 -73 0 -21 34 -47 62 -47 15
0 28 -4 28 -10 0 -5 -13 -10 -30 -10 -16 0 -30 -3 -30 -6 0 -9 23 -28 53 -43
33 -17 35 -29 5 -33 -18 -2 -23 -10 -23 -33 0 -21 -4 -29 -14 -27 -20 4 -62
-19 -55 -30 3 -4 11 -8 19 -8 13 0 69 -49 70 -60 0 -3 10 -19 23 -37 19 -27
30 -63 18 -63 -2 0 -24 10 -48 21 -76 38 -88 43 -94 36 -9 -9 15 -37 32 -37 8
0 14 -4 14 -8 0 -5 23 -15 50 -22 36 -10 50 -19 50 -32 0 -9 9 -34 21 -55 13
-24 17 -39 10 -41 -14 -5 -15 -42 -1 -42 6 0 10 -9 10 -20 0 -15 -7 -20 -25
-20 -14 0 -28 -7 -32 -15 -7 -20 1 -28 30 -27 19 0 25 -6 25 -25 0 -14 5 -29
12 -33 9 -5 9 -9 1 -14 -6 -4 -11 -2 -11 3 0 6 -9 11 -20 11 -21 0 -27 -15
-10 -25 14 -9 13 -68 -2 -83 -7 -7 -21 -12 -31 -12 -13 0 -17 -5 -13 -15 3 -9
-1 -18 -10 -22 -9 -3 -14 -15 -12 -28 4 -31 -19 -55 -53 -55 -16 0 -29 -4 -29
-10 0 -5 5 -10 10 -10 6 0 10 -7 10 -15 0 -8 -9 -15 -20 -15 -16 0 -20 -7 -20
-35 0 -39 -4 -42 -26 -20 -26 26 -34 17 -34 -40 0 -30 -4 -55 -10 -55 -5 0
-10 -9 -10 -20 0 -11 6 -20 13 -20 18 0 71 -49 62 -58 -4 -4 -10 -1 -12 6 -3
6 -13 12 -24 12 -10 0 -19 5 -19 10 0 6 -9 10 -20 10 -16 0 -20 -7 -20 -30 0
-29 -13 -40 -25 -20 -3 6 -13 10 -22 10 -11 0 -14 -6 -9 -25 3 -14 9 -36 12
-49 5 -19 1 -26 -15 -31 -12 -3 -21 -13 -21 -22 0 -15 -23 -15 -62 2 -14 6
-18 2 -18 -17 0 -27 21 -78 33 -78 4 0 7 -36 7 -80 0 -47 -4 -80 -10 -80 -5 0
-10 15 -10 34 0 50 -9 66 -37 66 -18 0 -24 -4 -19 -15 12 -31 -5 -47 -41 -40
-27 5 -38 2 -49 -12 -16 -21 -18 -59 -4 -68 19 -12 10 -25 -16 -25 -24 0 -26
-3 -20 -31 3 -18 2 -37 -3 -43 -5 -6 -11 -20 -14 -31 -3 -16 -6 -13 -12 13 -7
29 -25 46 -25 22 0 -5 -9 -10 -19 -10 -11 0 -21 -5 -23 -11 -3 -9 -10 -8 -25
1 -28 18 -53 7 -46 -20 6 -23 -41 -78 -52 -60 -4 7 -13 7 -27 -1 -14 -7 -23
-8 -27 -1 -3 6 -18 13 -32 17 -22 6 -27 3 -33 -19 -6 -23 -9 -24 -31 -14 -14
6 -25 15 -25 20 0 4 -7 8 -15 8 -9 0 -18 -12 -21 -30 -5 -21 -12 -30 -25 -30
-11 0 -19 5 -19 10 0 6 -13 10 -30 10 -16 0 -30 5 -30 12 0 6 -10 2 -23 -10
-27 -25 -37 -28 -37 -8 0 7 -22 23 -50 35 -28 12 -50 28 -50 36 0 10 -11 15
-34 15 -19 0 -38 5 -41 11 -5 7 -14 3 -26 -10 -22 -24 -39 -27 -39 -8 0 6 -11
25 -25 41 -26 30 -55 30 -55 -1 0 -15 -2 -16 -10 -3 -5 8 -6 26 -3 39 5 21 3
23 -17 18 -23 -6 -50 12 -50 32 0 6 -4 11 -10 11 -5 0 -10 -4 -10 -10 0 -16
-14 -12 -42 15 -15 14 -34 25 -42 25 -8 0 -25 12 -38 28 -12 15 -35 33 -50 39
-16 7 -28 17 -28 23 0 5 -9 10 -19 10 -11 0 -23 9 -26 20 -4 11 -17 32 -31 45
-28 28 -30 41 -10 61 19 19 46 18 46 -2 0 -22 42 -54 63 -48 12 4 17 0 17 -14
0 -10 12 -25 26 -32 14 -8 30 -22 35 -32 5 -10 15 -18 23 -18 7 0 22 -11 35
-26 14 -16 28 -23 40 -19 13 4 20 -1 24 -15 4 -16 12 -21 29 -18 17 2 24 -2
26 -19 4 -25 22 -29 55 -12 16 9 22 9 25 0 5 -16 32 -14 38 3 3 8 19 19 35 25
26 9 29 14 29 55 0 26 5 46 10 46 6 0 10 9 10 19 0 11 5 23 10 26 6 3 10 15
10 26 0 23 13 25 34 4 22 -23 29 -18 23 15 -6 26 -3 30 14 30 12 0 23 8 26 20
3 11 14 20 23 20 10 0 28 13 39 29 11 15 34 34 51 41 16 7 30 16 30 21 0 5 9
9 20 9 11 0 20 5 20 10 0 6 9 10 19 10 13 0 21 8 23 23 2 14 9 21 20 19 10 -1
19 6 24 20 6 20 20 41 64 95 18 22 11 109 -12 155 -13 23 -26 45 -30 46 -5 2
-8 12 -8 23 0 10 -4 19 -10 19 -5 0 -10 7 -10 15 0 20 -45 65 -65 65 -8 0 -15
4 -15 9 0 5 -8 12 -17 15 -10 4 -36 22 -58 41 -39 35 -65 44 -65 25 0 -5 -12
-10 -26 -10 -17 0 -28 6 -31 20 -3 11 -9 20 -13 20 -4 0 -10 9 -13 20 -5 20
-37 29 -37 10 0 -22 -19 -8 -34 25 -20 42 -36 53 -48 31 -5 -9 -14 -16 -21
-16 -18 1 -50 31 -66 63 -11 21 -21 27 -48 27 -19 0 -44 5 -56 12 -24 13 -74
12 -91 -1 -6 -4 -31 -8 -54 -9 -24 0 -50 -6 -58 -13 -10 -9 -24 -8 -59 2 -25
7 -45 17 -45 21 0 19 -31 5 -64 -28 -32 -32 -36 -41 -36 -90 0 -47 -2 -54 -20
-54 -11 0 -20 5 -20 10 0 20 -30 9 -47 -17 -10 -16 -25 -35 -35 -44 -11 -10
-18 -31 -18 -53 0 -25 -4 -36 -15 -36 -8 0 -15 -4 -15 -9 0 -5 7 -16 15 -25
17 -16 21 -66 5 -66 -5 0 -10 -12 -10 -26 0 -17 -6 -28 -20 -31 -24 -6 -27
-23 -4 -23 23 0 44 -25 44 -52 0 -30 -17 -48 -47 -48 -13 0 -26 -7 -29 -15 -6
-15 17 -45 34 -45 5 0 17 -9 27 -20 10 -11 26 -20 37 -20 10 0 18 -4 18 -10 0
-5 -4 -10 -10 -10 -5 0 -10 -8 -10 -19 0 -13 9 -20 30 -24 17 -4 30 -13 30
-21 0 -7 14 -19 30 -26 37 -15 38 -25 5 -46 -24 -16 -27 -16 -40 2 -8 11 -14
14 -15 7 0 -26 -38 -13 -52 17 -10 23 -19 30 -40 30 -16 0 -28 5 -28 10 0 6
-12 10 -26 10 -23 0 -25 3 -19 30 6 26 4 30 -14 30 -12 0 -21 4 -21 10 0 15
-42 50 -62 50 -13 0 -18 8 -18 30 0 28 -2 30 -40 30 -41 0 -52 14 -29 37 14
14 -14 59 -42 66 -12 3 -18 10 -14 16 6 11 -16 41 -32 41 -19 1 -63 51 -63 71
0 23 -30 54 -63 65 -20 6 -20 7 -3 20 25 17 16 50 -12 47 -12 -2 -22 2 -22 7
0 6 5 10 10 10 6 0 10 13 10 29 0 17 5 33 11 36 6 5 3 13 -10 22 -13 9 -21 25
-21 44 0 16 -4 29 -10 29 -5 0 -10 9 -10 20 0 11 5 20 11 20 7 0 9 10 5 28
-16 68 -15 92 5 92 20 0 26 24 9 35 -20 12 -9 25 20 25 28 0 30 2 30 39 0 29
5 40 16 43 10 2 18 15 20 31 2 24 -1 27 -27 27 -22 0 -29 5 -29 20 0 11 7 20
15 20 9 0 38 12 66 26 44 22 50 28 45 49 -3 13 -2 27 4 30 24 15 9 35 -26 35
-33 0 -73 24 -61 36 3 3 27 7 54 9 26 2 63 7 82 11 37 7 101 64 101 89 0 8 5
15 10 15 26 0 5 32 -30 46 -22 9 -40 20 -40 25 0 12 57 11 65 -1 3 -5 22 -10
41 -10 31 0 34 2 34 30 0 28 2 30 40 30 33 0 40 3 40 20 0 11 5 20 11 20 6 0
8 9 4 20 -3 11 -2 20 4 20 14 0 111 44 111 51 0 3 -11 12 -25 19 -14 7 -25 16
-25 20 0 11 69 40 113 46 52 8 69 21 62 45 -4 13 -1 19 8 19 7 0 19 12 26 26
10 22 16 25 41 19 26 -6 30 -4 30 14 0 12 6 21 15 21 20 0 85 65 85 85 0 8 8
15 19 15 10 0 21 9 24 21 5 17 9 19 26 10 11 -6 41 -11 67 -11 37 0 45 3 36
12 -7 7 -12 20 -12 30 0 15 9 18 50 18 42 0 50 3 50 18 0 14 8 19 30 19 17 0
30 -4 30 -9 0 -4 6 -8 14 -8 7 0 27 -13 44 -30 18 -16 34 -30 37 -30 3 0 5 23
5 50 0 28 2 50 5 50 12 0 55 -50 55 -63 0 -8 6 -17 14 -20 9 -4 12 0 9 13 -3
10 1 28 8 41 9 17 9 24 0 27 -13 4 -15 52 -2 52 28 0 41 -16 47 -58 4 -26 16
-55 28 -67 21 -21 58 -27 72 -12 4 4 16 7 26 7 17 0 19 7 16 58 l-3 57 -37 3
c-21 2 -38 7 -38 13 0 5 5 9 10 9 6 0 10 6 10 13 0 6 13 27 28 45 38 45 52 27
51 -63 -1 -37 3 -70 7 -74 14 -10 34 -49 34 -66 0 -24 15 -18 31 13 13 26 28
42 39 42 4 0 12 -16 19 -35 7 -19 16 -35 21 -35 5 0 18 22 31 50 22 49 43 68
55 49 3 -6 3 -21 0 -35 -5 -17 -2 -24 9 -24 9 0 15 9 15 24 0 14 10 32 22 40
30 21 38 20 38 -4 0 -21 24 -28 35 -10 3 6 13 10 20 10 22 0 54 31 75 70 19
36 44 62 71 72 12 5 15 1 11 -18 -2 -13 0 -24 5 -24 16 0 38 31 72 104 18 38
43 79 56 92 12 12 31 48 40 79 10 30 22 58 26 61 5 3 9 56 9 119 0 74 4 116
11 121 8 4 10 26 6 63 -6 54 16 151 36 159 4 2 7 21 7 42 0 51 13 57 30 15 17
-44 26 -44 27 0 1 27 9 43 35 65 32 29 32 30 11 36 -29 8 -29 19 0 58 32 41
66 118 85 191 12 41 19 81 29 150 3 22 8 42 12 45 16 13 31 53 31 83 0 19 3
37 7 41 4 4 8 24 8 46 1 22 4 42 8 46 9 9 37 -21 37 -40 0 -9 5 -16 10 -16 6
0 10 18 10 40 0 33 3 40 20 40 15 0 20 7 20 26 0 14 5 35 11 46 7 12 11 69 11
135 -1 70 2 111 8 108 6 -4 10 -30 10 -58 0 -41 4 -56 20 -67 11 -8 20 -22 20
-32 0 -9 5 -20 10 -23 6 -3 10 -16 10 -28 0 -13 9 -29 20 -37 15 -11 20 -26
20 -57 0 -47 5 -51 35 -25 26 22 42 57 50 107 3 22 14 64 23 93 15 51 17 53
45 48 27 -5 29 -4 23 17 -13 42 -18 153 -7 137 6 -8 11 -30 11 -48z m-201
-129 c1 -18 -3 -33 -9 -33 -5 0 -10 24 -9 53 0 38 3 47 9 32 5 -11 9 -35 9
-52z m-319 -65 c11 -18 20 -43 20 -55 0 -12 5 -25 10 -28 14 -9 13 -102 -2
-111 -7 -5 -4 -10 10 -15 15 -6 22 -17 22 -34 0 -14 -4 -25 -10 -25 -5 0 -10
-13 -10 -30 0 -16 -4 -30 -10 -30 -5 0 -10 -11 -10 -25 0 -14 -9 -44 -19 -68
-11 -23 -24 -59 -30 -79 -6 -21 -15 -53 -21 -71 -5 -18 -10 -46 -10 -60 0 -15
-4 -35 -9 -45 -5 -9 -12 -25 -15 -34 -3 -10 -10 -18 -15 -18 -13 0 -26 90 -15
99 17 12 34 51 34 76 0 14 5 25 10 25 6 0 10 14 10 30 0 17 5 30 10 30 6 0 10
13 10 29 0 17 4 32 9 35 23 15 31 234 12 306 -19 69 -25 130 -12 130 6 0 20
-15 31 -32z m1870 -758 c0 -5 -9 -10 -21 -10 -24 0 -49 -22 -49 -44 0 -9 -8
-16 -19 -16 -11 0 -23 -4 -26 -10 -3 -5 -14 -10 -22 -10 -14 0 -13 3 4 19 12
11 23 24 24 29 6 14 71 50 92 51 9 1 17 -3 17 -9z m-160 -39 c-6 -12 -15 -21
-20 -21 -5 0 -16 -7 -25 -16 -9 -9 -18 -14 -21 -12 -2 3 12 22 32 42 39 39 53
42 34 7z m-1910 -81 c0 -5 -4 -10 -10 -10 -5 0 -10 5 -10 10 0 6 5 10 10 10 6
0 10 -4 10 -10z m1820 1 c0 -6 -4 -13 -10 -16 -5 -3 -10 1 -10 9 0 9 5 16 10
16 6 0 10 -4 10 -9z m-200 -280 c0 -10 -60 -61 -73 -61 -10 0 54 69 66 70 4 0
7 -4 7 -9z m-100 -97 c0 -11 -68 -74 -80 -74 -7 0 -20 -8 -29 -17 -21 -23 -61
-46 -68 -39 -7 7 16 28 50 45 15 8 27 20 27 27 0 7 14 21 30 31 17 9 30 21 30
25 0 4 9 8 20 8 11 0 20 -3 20 -6z m-2507 -68 c30 -8 70 -22 88 -32 46 -23 99
-83 99 -111 0 -13 5 -23 10 -23 16 0 12 -96 -5 -110 -18 -15 -45 8 -45 40 0
25 -51 77 -89 92 -41 15 -71 2 -71 -31 0 -43 -22 -60 -68 -54 -24 3 -42 1 -46
-6 -10 -16 -35 -14 -53 5 -13 13 -14 20 -5 35 7 10 12 23 12 29 0 6 11 22 25
36 14 14 25 29 25 34 0 19 -22 10 -50 -20 -15 -16 -35 -30 -44 -30 -45 0 14
108 76 138 52 25 71 26 141 8z m2307 -21 c-13 -14 -31 -25 -39 -25 -11 0 -7 8
13 25 38 32 56 32 26 0z m-2592 -37 c16 -16 15 -29 -4 -94 -8 -30 -21 -54 -27
-54 -13 0 -37 66 -37 102 0 23 26 58 45 58 6 0 16 -5 23 -12z m2220 -168 c-13
-20 -28 -27 -28 -12 0 10 22 32 32 32 5 0 3 -9 -4 -20z m-1808 -50 c0 -5 -4
-10 -10 -10 -5 0 -10 5 -10 10 0 6 5 10 10 10 6 0 10 -4 10 -10z m1736 -1092
c113 -52 204 -188 204 -302 0 -44 -4 -53 -39 -88 -22 -21 -44 -38 -50 -38 -14
0 -14 43 0 57 17 17 16 145 -1 179 -39 76 -111 98 -143 44 -17 -27 -23 -30
-73 -30 -30 0 -54 3 -54 6 0 12 43 44 67 50 32 9 29 17 -22 55 -51 39 -54 50
-22 72 31 22 80 21 133 -5z m2797 -438 c18 0 19 -2 7 -10 -24 -16 -60 -12 -60
6 0 11 5 14 16 10 9 -3 25 -6 37 -6z m-5303 -460 c14 -11 31 -20 38 -20 21 0
13 -20 -8 -20 -11 0 -20 4 -20 8 0 5 -11 15 -25 22 -14 7 -25 17 -25 22 0 13
13 9 40 -12z m-750 -50 c0 -5 -7 -10 -16 -10 -8 0 -12 5 -9 10 3 6 10 10 16
10 5 0 9 -4 9 -10z m-40 -18 c0 -5 -12 -15 -27 -23 -16 -8 -31 -18 -35 -24 -4
-5 -10 -6 -13 -3 -10 10 37 57 58 57 9 1 17 -3 17 -7z m50 -296 c0 -2 3 -11 6
-20 4 -12 0 -16 -15 -16 -14 0 -21 6 -21 20 0 11 7 20 15 20 8 0 15 -2 15 -4z
m214 -168 c22 -23 54 -92 78 -170 12 -43 26 -78 29 -78 8 0 16 47 26 135 3 32
13 73 23 90 18 33 60 47 60 21 0 -12 7 -14 30 -9 20 4 30 2 30 -7 0 -8 9 -11
27 -7 29 5 52 -14 53 -44 0 -9 8 -19 18 -21 10 -3 24 -23 32 -49 8 -24 22 -51
32 -60 19 -18 24 -49 8 -49 -5 0 -10 -6 -10 -14 0 -8 -21 -36 -47 -63 -27 -27
-61 -65 -76 -86 -15 -20 -34 -37 -42 -37 -7 0 -15 -3 -17 -7 -1 -5 -40 -21
-85 -36 -87 -30 -111 -29 -147 4 -22 21 -32 23 -41 9 -13 -21 -39 -8 -91 43
-30 28 -54 56 -54 60 0 14 -46 77 -94 127 -67 71 -61 120 16 120 42 0 43 2 27
32 -14 27 3 38 47 31 26 -4 33 -2 39 16 8 25 22 27 47 4 11 -9 18 -11 18 -5 0
11 39 62 48 62 2 0 9 -6 16 -12z m849 -508 l21 -20 -26 -27 c-25 -24 -86 -52
-115 -53 -18 0 -16 48 1 66 8 8 22 14 30 14 9 0 16 5 16 10 0 6 9 10 20 10 11
0 20 5 20 10 0 15 8 12 33 -10z m-360 -26 c38 -13 49 -23 64 -55 11 -25 23
-39 36 -39 43 0 66 -57 67 -168 0 -72 -13 -92 -59 -92 -26 0 -31 -4 -31 -25 0
-16 -7 -28 -17 -31 -62 -20 -73 -27 -68 -44 8 -26 -16 -32 -147 -38 -105 -4
-118 -6 -118 -23 0 -10 -9 -21 -20 -24 -16 -5 -20 -15 -20 -51 l0 -44 38 0
c55 0 70 -29 36 -70 -14 -16 -32 -30 -40 -30 -8 0 -14 -4 -14 -10 0 -5 -9 -10
-19 -10 -11 0 -22 -4 -25 -9 -8 -12 -76 -22 -103 -15 -34 9 -46 53 -38 144 6
67 10 80 25 80 24 0 93 78 86 97 -3 8 -6 20 -6 27 0 7 -12 18 -26 25 -17 7
-24 17 -20 27 7 19 -21 64 -40 64 -8 0 -14 9 -14 20 0 11 6 20 13 20 7 0 23 9
35 20 24 23 95 27 137 8 38 -17 42 -2 6 31 -17 16 -31 36 -31 44 0 9 -5 17
-11 19 -9 3 -9 10 0 27 11 20 18 22 48 16 23 -4 38 -2 43 5 6 9 13 9 29 0 12
-6 35 -8 51 -5 20 4 39 1 59 -11 17 -10 33 -15 36 -12 4 3 2 28 -3 55 -7 42
-1 93 11 93 2 0 24 -7 50 -16z m1387 -24 c0 -16 -4 -30 -10 -30 -5 0 -10 14
-10 30 0 17 5 30 10 30 6 0 10 -13 10 -30z m-1864 -87 c-10 -10 -19 5 -10 18
6 11 8 11 12 0 2 -7 1 -15 -2 -18z m-101 -153 c3 -5 15 -10 26 -10 15 0 19 -7
19 -38 0 -32 -5 -41 -25 -50 -14 -7 -39 -12 -56 -12 -33 0 -58 -13 -102 -50
-32 -28 -62 -37 -128 -39 -28 -1 -52 -7 -59 -16 -7 -8 -18 -15 -26 -15 -11 0
-11 5 1 28 8 15 19 42 26 60 9 25 17 32 39 32 15 0 42 11 61 24 47 34 149 84
179 89 14 2 28 5 32 6 4 0 10 -3 13 -9z m1485 -250 c6 -11 21 -20 35 -20 13 0
27 -4 30 -10 3 -5 15 -10 26 -10 11 0 21 -6 23 -12 2 -7 8 -31 14 -53 6 -22
16 -59 23 -82 10 -34 10 -52 0 -85 -7 -24 -17 -61 -23 -83 -6 -22 -12 -46 -14
-52 -7 -27 -114 43 -114 74 0 7 -4 13 -9 13 -5 0 -13 9 -16 20 -4 11 -17 32
-31 45 -13 13 -24 30 -24 37 0 7 -7 21 -14 31 -7 9 -11 28 -8 42 2 14 0 25 -6
25 -9 0 -25 57 -25 90 0 40 14 50 69 50 43 0 55 -4 64 -20z m1521 -27 c0 -16
2 -50 3 -76 2 -54 -6 -66 -29 -43 -19 19 -21 132 -2 139 23 10 27 7 28 -20z
m-1821 -53 c0 -13 -7 -20 -20 -20 -13 0 -20 7 -20 20 0 13 7 20 20 20 13 0 20
-7 20 -20z m1626 -83 c52 -104 98 -180 106 -172 7 7 -15 75 -24 75 -5 0 -8 11
-8 25 0 14 4 25 10 25 13 0 50 -41 50 -57 0 -7 3 -13 8 -13 4 0 13 -15 21 -32
7 -18 22 -52 32 -75 19 -42 26 -123 11 -123 -4 0 -18 25 -31 55 -27 61 -41 70
-41 25 0 -35 -23 -41 -40 -11 -5 11 -16 25 -23 33 -7 7 -24 33 -37 58 -14 25
-37 57 -52 73 -16 15 -28 34 -28 42 0 8 -4 15 -10 15 -5 0 -10 18 -10 40 0 37
2 40 28 40 18 0 31 -7 38 -23z m-2840 -71 c27 -27 17 -62 -22 -81 -45 -21 -82
-13 -90 20 -10 40 19 75 62 75 19 0 42 -6 50 -14z m-326 -51 c0 -14 -4 -25
-10 -25 -5 0 -10 7 -10 15 0 8 -4 15 -10 15 -5 0 -10 5 -10 10 0 6 9 10 20 10
15 0 20 -7 20 -25z"/>
<path d="M5273 6941 c-13 -21 -8 -32 13 -24 14 5 20 43 6 43 -4 0 -13 -9 -19
-19z"/>
<path d="M5020 6759 c0 -11 5 -17 10 -14 6 3 10 13 10 21 0 8 -4 14 -10 14 -5
0 -10 -9 -10 -21z"/>
<path d="M6300 6610 c0 -5 5 -10 10 -10 6 0 10 5 10 10 0 6 -4 10 -10 10 -5 0
-10 -4 -10 -10z"/>
<path d="M4893 6473 c-16 -32 -17 -63 -3 -63 6 0 10 7 10 15 0 8 5 15 10 15 6
0 10 14 10 30 0 37 -11 38 -27 3z"/>
<path d="M6260 6189 c0 -7 -10 -9 -25 -7 -16 4 -25 1 -25 -8 0 -16 18 -22 47
-16 23 4 34 42 13 42 -5 0 -10 -5 -10 -11z"/>
<path d="M4680 5976 c0 -9 5 -16 10 -16 6 0 10 4 10 9 0 6 -4 13 -10 16 -5 3
-10 -1 -10 -9z"/>
<path d="M5476 5624 c-8 -22 -8 -24 7 -24 7 0 18 9 25 20 11 17 10 20 -7 20
-10 0 -22 -7 -25 -16z"/>
<path d="M3100 4125 c0 -8 5 -15 10 -15 6 0 10 7 10 15 0 8 -4 15 -10 15 -5 0
-10 -7 -10 -15z"/>
<path d="M6520 8730 c0 -5 5 -10 10 -10 6 0 10 5 10 10 0 6 -4 10 -10 10 -5 0
-10 -4 -10 -10z"/>
<path d="M1956 2937 c-9 -35 -7 -40 9 -27 17 14 20 36 6 44 -5 3 -11 -4 -15
-17z"/>
<path d="M3318 1835 c-8 -8 3 -98 13 -109 5 -6 9 -23 9 -38 0 -15 5 -28 10
-28 6 0 10 -9 10 -20 0 -23 1 -24 35 -8 19 8 25 19 25 43 0 17 -4 35 -8 41 -5
5 -15 29 -22 54 -8 25 -20 51 -26 58 -13 12 -37 16 -46 7z"/>
<path d="M5860 1730 c0 -5 5 -10 10 -10 6 0 10 5 10 10 0 6 -4 10 -10 10 -5 0
-10 -4 -10 -10z"/>
<path d="M5880 1668 c0 -20 5 -40 10 -43 6 -3 10 -19 10 -36 0 -16 5 -29 10
-29 6 0 10 14 10 30 0 17 -4 30 -10 30 -5 0 -10 12 -10 28 0 15 -5 34 -10 42
-7 11 -10 6 -10 -22z"/>
<path d="M2952 1568 c-7 -7 -12 -17 -12 -23 0 -6 -8 -20 -18 -31 -22 -23 -31
-55 -43 -144 -4 -36 -13 -94 -19 -130 -11 -61 -23 -151 -36 -262 -3 -26 -1
-55 5 -65 6 -10 11 -12 11 -5 0 6 7 12 16 12 23 0 44 25 44 54 0 14 4 26 9 26
5 0 12 19 15 43 15 112 19 133 27 142 5 5 9 19 9 32 0 36 24 103 36 103 17 0
25 -29 14 -50 -6 -10 -10 -30 -10 -44 0 -14 -4 -27 -9 -30 -5 -3 -11 -23 -14
-43 -10 -67 -19 -108 -27 -118 -14 -18 -21 -121 -11 -148 8 -19 18 -27 36 -27
20 0 25 -5 25 -26 0 -29 21 -54 44 -54 12 0 16 10 16 40 0 29 -4 40 -15 40
-20 0 -9 46 17 74 10 11 18 26 18 33 0 7 5 13 10 13 6 0 10 6 10 13 0 7 6 25
13 40 9 20 19 27 41 27 l29 0 -8 -52 c-4 -29 -11 -89 -14 -132 -6 -71 -4 -81
13 -98 24 -22 46 -23 46 -3 0 9 11 19 23 24 22 9 23 14 20 68 -3 32 -9 70 -15
85 -5 15 -9 48 -8 75 4 77 1 88 -22 98 -18 8 -22 17 -21 40 9 113 0 171 -38
246 -11 20 -19 53 -19 73 0 49 -16 46 -23 -5 -7 -51 -20 -67 -39 -47 -20 21
-38 56 -38 73 0 8 -4 15 -8 15 -4 0 -16 14 -25 30 -19 32 -36 37 -55 18z"/>
<path d="M5920 1508 c0 -20 5 -40 10 -43 6 -3 10 -21 10 -39 0 -32 12 -78 30
-121 5 -11 11 -29 13 -40 3 -11 3 2 0 30 -5 57 -21 132 -34 157 -5 10 -9 28
-9 40 0 13 -5 30 -10 38 -7 11 -10 6 -10 -22z"/>
<path d="M101 1391 c-12 -28 -14 -56 -13 -201 0 -41 0 -104 -1 -140 -2 -53 1
-65 14 -68 13 -2 19 10 28 61 6 35 11 86 11 113 0 27 4 63 8 79 11 39 -8 185
-24 185 -6 0 -17 -13 -23 -29z"/>
<path d="M2463 1315 c-7 -20 16 -75 32 -75 20 0 35 -107 18 -124 -12 -12 -10
-90 3 -103 23 -23 45 -11 94 52 14 17 13 18 -2 12 -12 -4 -15 -2 -11 9 3 7 9
14 14 14 5 0 9 9 9 20 0 13 -7 20 -20 20 -12 0 -20 7 -20 16 0 9 9 18 20 21
11 3 20 7 20 10 0 11 -31 34 -39 29 -10 -6 -81 73 -81 90 0 19 -30 25 -37 9z"/>
<path d="M1956 1273 c7 -26 26 -53 38 -53 15 0 3 34 -19 56 l-26 26 7 -29z"/>
<path d="M2640 1290 c0 -5 5 -10 10 -10 6 0 10 -9 10 -20 0 -13 7 -20 20 -20
11 0 20 5 20 10 0 6 -4 10 -10 10 -5 0 -10 9 -10 20 0 13 -7 20 -20 20 -11 0
-20 -4 -20 -10z"/>
<path d="M6001 1204 c0 -11 3 -14 6 -6 3 7 2 16 -1 19 -3 4 -6 -2 -5 -13z"/>
<path d="M7403 1180 c-3 -11 -11 -20 -18 -20 -14 0 -25 -21 -25 -47 0 -10 8
-5 22 13 12 16 25 31 28 34 13 10 19 40 9 40 -6 0 -13 -9 -16 -20z"/>
<path d="M7445 1116 c-11 -12 -31 -38 -45 -58 -14 -21 -28 -38 -31 -38 -4 0
-12 -13 -19 -30 -7 -16 -16 -30 -21 -30 -14 0 -10 -43 6 -64 16 -21 45 -15 45
9 0 8 5 15 10 15 6 0 10 7 10 15 0 8 9 34 19 57 11 24 27 61 37 83 9 22 18 43
20 47 10 17 -13 13 -31 -6z"/>
<path d="M6021 1114 c0 -11 3 -14 6 -6 3 7 2 16 -1 19 -3 4 -6 -2 -5 -13z"/>
<path d="M4860 1009 c0 -88 12 -167 31 -201 5 -10 9 -27 9 -37 0 -11 5 -32 12
-46 13 -30 48 -34 48 -6 0 11 8 22 18 25 18 6 122 110 122 122 0 3 -16 22 -35
41 -19 19 -35 39 -35 43 0 14 -140 150 -155 150 -12 0 -15 -18 -15 -91z"/>
<path d="M2060 1060 c0 -21 20 -72 33 -81 11 -8 47 -110 47 -134 0 -21 17 -45
32 -45 12 0 10 38 -2 45 -5 3 -10 18 -10 32 0 27 -16 84 -31 115 -5 10 -9 22
-9 28 0 13 -41 60 -52 60 -4 0 -8 -9 -8 -20z"/>
<path d="M2692 1044 c-7 -8 -12 -27 -10 -42 l4 -27 12 29 c16 37 12 60 -6 40z"/>
<path d="M7156 1019 c-9 -18 -16 -39 -16 -48 0 -9 -6 -34 -14 -56 -7 -22 -16
-57 -19 -77 -5 -31 -3 -38 11 -38 12 0 21 14 29 43 13 45 34 199 28 205 -1 2
-10 -11 -19 -29z"/>
<path d="M2566 978 c-19 -27 -20 -38 -3 -38 15 0 38 48 27 55 -5 3 -16 -5 -24
-17z"/>
<path d="M7621 954 c0 -11 3 -14 6 -6 3 7 2 16 -1 19 -3 4 -6 -2 -5 -13z"/>
<path d="M2000 906 c0 -8 5 -18 10 -21 6 -3 10 3 10 14 0 12 -4 21 -10 21 -5
0 -10 -6 -10 -14z"/>
<path d="M7500 894 c-21 -54 -23 -109 -6 -123 9 -7 23 -11 31 -7 13 5 15 20
13 78 -3 77 -20 100 -38 52z"/>
<path d="M8148 915 c-6 -6 15 -107 25 -122 5 -7 12 -13 18 -13 14 0 11 38 -3
43 -7 2 -9 8 -5 13 4 5 12 2 17 -6 14 -23 23 -4 10 21 -15 27 -56 70 -62 64z"/>
<path d="M7270 878 c-8 -11 -27 -36 -42 -53 -16 -18 -28 -36 -28 -41 0 -21
-47 -101 -72 -122 -15 -13 -28 -33 -28 -44 0 -17 5 -20 29 -15 23 5 30 2 40
-19 19 -42 14 -54 -18 -48 -27 6 -29 4 -33 -32 -8 -72 -2 -81 60 -87 78 -8 90
1 52 41 -35 37 -37 52 -10 77 11 10 20 24 20 32 0 9 13 13 43 13 48 0 81 -22
161 -107 54 -58 82 -67 92 -28 8 33 -13 78 -48 98 -21 12 -28 24 -28 45 0 41
-21 57 -52 40 -13 -7 -26 -17 -29 -21 -12 -16 -59 15 -59 39 0 35 -11 58 -20
43 -6 -9 -12 -8 -24 4 -14 14 -15 20 -4 37 7 11 21 23 30 26 10 3 18 12 18 20
0 8 5 14 10 14 17 0 11 35 -10 58 -11 12 -20 28 -20 37 0 21 -13 19 -30 -7z"/>
<path d="M7646 884 c-9 -24 -8 -26 21 -22 37 4 45 38 10 38 -14 0 -28 -7 -31
-16z"/>
<path d="M80 793 c0 -38 -2 -86 -5 -108 -2 -22 -2 -32 1 -22 3 9 10 17 15 17
5 0 9 41 9 90 0 53 -4 90 -10 90 -6 0 -10 -29 -10 -67z"/>
<path d="M0 818 c0 -19 2 -20 10 -8 13 19 13 30 0 30 -5 0 -10 -10 -10 -22z"/>
<path d="M8090 825 c-6 -8 -12 -30 -13 -50 -1 -23 -6 -37 -18 -40 -9 -3 -24
-21 -34 -40 -22 -49 -45 -46 -45 5 0 32 -4 40 -18 40 -18 0 -38 -50 -46 -115
-7 -61 -29 -84 -41 -45 -7 23 -35 27 -35 5 0 -9 -8 -19 -17 -22 -26 -10 -36
-23 -50 -64 -15 -42 -17 -159 -3 -159 14 0 13 -76 -1 -98 -9 -14 -7 -25 8 -52
23 -41 57 -61 93 -54 23 5 25 10 27 65 1 32 -2 59 -7 59 -5 0 -12 9 -15 21 -9
26 24 59 58 59 28 0 57 48 36 61 -15 9 -4 39 15 39 9 0 20 18 28 48 16 56 39
62 49 13 9 -43 2 -61 -22 -61 -12 0 -19 -7 -19 -20 0 -14 6 -20 18 -18 11 2
18 -4 20 -19 2 -16 -2 -23 -13 -23 -8 0 -19 -8 -22 -17 -4 -10 -10 -20 -13
-23 -4 -3 -10 -22 -13 -43 -4 -26 -2 -41 9 -50 41 -34 74 -73 74 -87 0 -27 26
-60 59 -73 44 -19 95 -49 99 -59 2 -5 93 -8 203 -8 l199 0 0 50 0 50 -37 0
c-30 0 -43 6 -62 30 -14 19 -32 30 -48 30 -37 0 -108 72 -123 125 -7 24 -21
53 -31 64 -37 40 -13 111 37 111 11 0 26 -9 34 -20 24 -33 90 -16 90 23 0 19
24 29 39 14 6 -6 11 -34 11 -63 0 -43 5 -57 28 -81 15 -16 35 -32 45 -36 15
-6 17 2 17 78 0 50 -4 85 -10 85 -5 0 -10 13 -10 29 0 15 -8 39 -18 52 -11 13
-22 36 -25 50 -4 14 -16 36 -27 49 -11 13 -20 26 -20 29 0 14 -71 81 -85 81
-8 0 -22 -15 -31 -32 -9 -18 -21 -36 -27 -39 -14 -10 -47 2 -47 16 0 15 -22
25 -55 25 -15 0 -25 7 -28 22 l-6 22 -19 -22 c-19 -22 -52 -30 -52 -13 0 6
-17 11 -37 13 -35 3 -38 5 -37 33 0 17 4 38 8 48 10 21 -7 23 -24 2z m10 -135
c0 -5 -4 -10 -10 -10 -5 0 -10 5 -10 10 0 6 5 10 10 10 6 0 10 -4 10 -10z m40
-91 c0 -10 -4 -19 -10 -19 -5 0 -10 12 -10 26 0 14 4 23 10 19 6 -3 10 -15 10
-26z m125 -9 c-3 -5 -10 -10 -16 -10 -5 0 -9 5 -9 10 0 6 7 10 16 10 8 0 12
-4 9 -10z m-395 -55 c0 -8 -7 -15 -15 -15 -8 0 -15 7 -15 15 0 8 7 15 15 15 8
0 15 -7 15 -15z"/>
<path d="M6670 816 c0 -7 7 -19 15 -26 12 -10 15 -9 15 8 0 11 -7 22 -15 26
-9 3 -15 0 -15 -8z"/>
<path d="M5523 782 c10 -10 17 -35 17 -54 0 -39 19 -62 43 -52 10 3 21 -2 29
-15 15 -25 28 -27 28 -6 0 9 -20 36 -45 61 -24 25 -47 54 -50 65 -4 10 -13 19
-22 19 -14 0 -14 -2 0 -18z"/>
<path d="M3265 770 c-3 -5 -14 -10 -23 -10 -9 0 -32 -16 -51 -36 -28 -31 -31
-40 -22 -58 5 -11 11 -30 13 -41 2 -14 12 -21 35 -23 25 -3 35 2 49 23 13 20
14 29 5 38 -13 13 -15 57 -2 57 5 0 11 8 15 18 3 9 9 23 12 30 7 14 -22 17
-31 2z"/>
<path d="M7100 750 c0 -16 -4 -30 -10 -30 -5 0 -10 -4 -10 -10 0 -5 9 -10 20
-10 17 0 20 7 20 40 0 22 -4 40 -10 40 -5 0 -10 -13 -10 -30z"/>
<path d="M7745 761 c-6 -20 13 -61 27 -61 5 0 8 18 8 40 0 43 -23 57 -35 21z"/>
<path d="M7000 660 c0 -42 14 -54 25 -20 7 23 -2 60 -16 60 -5 0 -9 -18 -9
-40z"/>
<path d="M1725 610 c-3 -5 -1 -10 4 -10 6 0 11 5 11 10 0 6 -2 10 -4 10 -3 0
-8 -4 -11 -10z"/>
<path d="M7012 568 c-16 -16 -15 -76 1 -92 11 -11 17 -11 30 -1 28 21 18 105
-13 105 -3 0 -11 -5 -18 -12z"/>
<path d="M1880 551 c0 -11 5 -23 10 -26 6 -4 10 5 10 19 0 14 -4 26 -10 26 -5
0 -10 -9 -10 -19z"/>
<path d="M107 554 c-14 -14 -7 -35 11 -32 9 2 17 10 17 17 0 16 -18 25 -28 15z"/>
<path d="M760 520 c-9 -16 -8 -20 5 -20 8 0 15 9 15 20 0 11 -2 20 -5 20 -2 0
-9 -9 -15 -20z"/>
<path d="M80 490 c0 -5 4 -10 9 -10 5 0 13 -9 16 -20 10 -31 22 -24 17 10 -3
21 -10 30 -23 30 -11 0 -19 -4 -19 -10z"/>
<path d="M1340 475 c0 -8 5 -15 10 -15 6 0 10 7 10 15 0 8 -4 15 -10 15 -5 0
-10 -7 -10 -15z"/>
<path d="M1420 450 c0 -5 5 -10 10 -10 6 0 10 5 10 10 0 6 -4 10 -10 10 -5 0
-10 -4 -10 -10z"/>
<path d="M5540 446 c0 -7 -8 -24 -19 -37 -37 -48 -35 -94 3 -56 32 31 50 107
26 107 -5 0 -10 -6 -10 -14z"/>
<path d="M659 399 c-19 -22 -42 -50 -52 -62 -19 -23 -16 -78 5 -104 11 -14 58
-18 59 -5 4 57 11 102 18 122 15 39 21 90 12 90 -4 0 -23 -18 -42 -41z"/>
<path d="M120 411 c0 -6 4 -13 10 -16 6 -3 7 1 4 9 -7 18 -14 21 -14 7z"/>
<path d="M1425 370 c-3 -5 -13 -10 -21 -10 -20 0 -39 -19 -46 -47 -6 -24 9
-43 21 -27 3 5 18 17 34 27 15 10 27 24 27 32 0 8 5 15 10 15 6 0 10 5 10 10
0 6 -6 10 -14 10 -8 0 -18 -4 -21 -10z"/>
<path d="M773 265 c-7 -8 -13 -21 -13 -30 0 -8 -4 -15 -10 -15 -5 0 -10 -4
-10 -10 0 -21 36 -8 48 17 21 47 12 69 -15 38z"/>
<path d="M6967 233 c-3 -16 1 -32 10 -41 12 -13 16 -12 28 4 18 23 18 37 3 52
-20 20 -35 14 -41 -15z"/>
<path d="M8580 245 c0 -9 9 -25 20 -37 11 -12 20 -28 20 -35 0 -7 5 -13 10
-13 15 0 12 70 -4 86 -19 19 -46 18 -46 -1z"/>
<path d="M923 220 c-3 -11 -9 -20 -14 -20 -5 0 -9 -13 -9 -30 0 -16 3 -30 6
-30 10 0 30 25 36 45 3 11 9 28 13 38 5 12 2 17 -10 17 -9 0 -19 -9 -22 -20z"/>
<path d="M7077 234 c-8 -8 3 -34 14 -34 5 0 9 9 9 20 0 19 -11 26 -23 14z"/>
<path d="M5918 202 c2 -15 8 -31 12 -37 4 -5 10 -22 13 -36 14 -59 77 -91 77
-39 0 33 -54 111 -91 131 -13 7 -15 4 -11 -19z"/>
<path d="M313 184 c-15 -16 -16 -24 -4 -24 8 0 24 30 19 35 -2 2 -9 -3 -15
-11z"/>
<path d="M7233 153 c-7 -2 -13 -11 -13 -19 0 -8 -5 -14 -10 -14 -7 0 -10 -22
-8 -57 3 -58 3 -58 37 -61 29 -3 33 -1 26 15 -4 10 -13 32 -19 48 -6 17 -15
33 -21 37 -5 4 -8 8 -5 8 3 1 20 3 38 5 42 4 48 10 29 30 -16 15 -31 18 -54 8z"/>
<path d="M7467 33 c-15 -15 -6 -33 17 -33 19 0 23 4 19 20 -5 20 -23 26 -36
13z"/>
</g>
</svg>
